<svg width="512" height="512" viewBox="0 0 512 512" fill="none" xmlns="http://www.w3.org/2000/svg">
<rect width="512" height="512" fill="black"/>
<path d="M184.9 356.9C178.7 356.9 173.8 355.2 170.2 351.8C166.8 348.2 165.1 343.1 165.1 336.5V163.4C165.1 156.8 166.8 151.8 170.2 148.4C173.8 144.8 178.9 143 185.5 143H290.2C295.4 143 299.3 144.3 301.9 146.9C304.5 149.5 305.8 153.2 305.8 158C305.8 163 304.5 166.9 301.9 169.7C299.3 172.3 295.4 173.6 290.2 173.6H203.5V233.3H283.9C288.9 233.3 292.7 234.6 295.3 237.2C298.1 239.8 299.5 243.5 299.5 248.3C299.5 253.3 298.1 257.2 295.3 260C292.7 262.6 288.9 263.9 283.9 263.9H203.5V336.5C203.5 350.1 197.3 356.9 184.9 356.9Z" fill="white"/>
<path d="M332.875 356C326.075 356 320.575 353.9 316.375 349.7C312.375 345.5 310.375 340.1 310.375 333.5C310.375 327.1 312.375 321.9 316.375 317.9C320.575 313.7 326.075 311.6 332.875 311.6C339.875 311.6 345.275 313.7 349.075 317.9C353.075 321.9 355.075 327.1 355.075 333.5C355.075 340.1 353.075 345.5 349.075 349.7C345.275 353.9 339.875 356 332.875 356Z" fill="#00FF1A"/>
</svg>
