<?xml version="1.0" standalone="no"?>
<!DOCTYPE svg PUBLIC "-//W3C//DTD SVG 20010904//EN"
 "http://www.w3.org/TR/2001/REC-SVG-20010904/DTD/svg10.dtd">
<svg version="1.0" xmlns="http://www.w3.org/2000/svg"
 width="800.000000pt" height="800.000000pt" viewBox="0 0 800.000000 800.000000"
 preserveAspectRatio="xMidYMid meet">

<g transform="translate(0.000000,800.000000) scale(0.100000,-0.100000)"
fill="#000000" stroke="none">
<path d="M3315 6820 c-60 -5 -137 -14 -170 -20 -33 -6 -82 -15 -110 -19 -267
-46 -616 -196 -875 -377 -431 -302 -751 -753 -899 -1267 -30 -104 -50 -199
-73 -342 -19 -121 -16 -494 6 -630 79 -511 299 -947 656 -1305 315 -317 674
-518 1110 -624 151 -37 248 -47 486 -53 207 -5 425 10 523 37 20 5 68 17 106
25 286 66 593 216 857 418 48 37 91 67 95 67 5 0 341 -333 748 -741 407 -407
760 -755 785 -773 52 -38 91 -48 144 -36 53 12 90 50 105 111 11 42 11 59 1
90 -10 30 -168 193 -770 797 -417 417 -761 768 -764 780 -5 16 4 36 36 79 24
32 46 60 49 63 9 8 102 149 147 222 147 243 268 602 299 883 10 93 10 524 0
600 -31 235 -103 475 -203 680 -90 181 -160 296 -266 435 -49 65 -319 337
-398 402 -66 55 -270 191 -360 241 -350 194 -829 291 -1265 257z m383 -330
c375 -40 729 -181 1027 -409 85 -64 256 -232 328 -321 285 -353 447 -810 447
-1260 0 -450 -162 -907 -447 -1260 -72 -89 -243 -257 -328 -321 -352 -269
-791 -419 -1225 -419 -434 0 -873 150 -1225 419 -85 64 -256 232 -328 321
-489 606 -584 1441 -243 2135 110 225 228 387 407 560 168 162 303 257 514
361 333 163 714 232 1073 194z"/>
</g>
</svg>
